<svg width="60" height="36" viewBox="0 0 60 36" fill="none" xmlns="http://www.w3.org/2000/svg">
<path d="M60 34.4701C59.1268 34.8003 58.1628 34.7996 57.2901 34.468C56.4174 34.1364 55.6961 33.4969 55.2625 32.6701L46.6375 20.7426L45.3875 19.0751L35.38 32.6851C34.9725 33.4772 34.2904 34.0938 33.4613 34.4195C32.6322 34.7453 31.7128 34.7579 30.875 34.4551L43.77 17.1551L31.775 1.52756C32.6375 1.21674 33.5808 1.21262 34.4459 1.51589C35.3111 1.81915 36.0453 2.41128 36.525 3.19256L45.465 15.2676L54.455 3.24256C54.8657 2.46453 55.548 1.86453 56.3721 1.55663C57.1963 1.24873 58.1048 1.2544 58.925 1.57256L54.27 7.75006L47.965 15.9576C47.7899 16.1137 47.6498 16.3052 47.5539 16.5193C47.458 16.7334 47.4084 16.9654 47.4084 17.2001C47.4084 17.4347 47.458 17.6667 47.5539 17.8808C47.6498 18.0949 47.7899 18.2864 47.965 18.4426L59.975 34.4726L60 34.4701ZM0.00502999 16.9401L1.05503 11.7526C3.94003 1.49506 15.7 -2.77244 23.79 3.57756C28.5275 7.30006 29.71 12.5701 29.4775 18.5101H2.79003C2.35753 29.1176 10.0125 35.5226 19.8 32.2501C21.3867 31.6789 22.8069 30.7232 23.9334 29.4683C25.06 28.2135 25.8576 26.6989 26.255 25.0601C26.7725 23.3951 27.625 23.1101 29.19 23.5901C28.9292 25.621 28.2113 27.5664 27.0902 29.2799C25.9691 30.9933 24.4741 32.4302 22.7175 33.4826C19.8161 35.0696 16.4871 35.6987 13.2066 35.2797C9.92608 34.8608 6.86203 33.4154 4.45253 31.1501C2.0701 28.4685 0.63022 25.0813 0.35253 21.5051C0.35253 20.9176 0.15253 20.3676 0.01753 19.8401C0.00536007 18.8743 -0.000473393 17.9084 2.99907e-05 16.9426L0.00502999 16.9401ZM2.82253 16.2251H26.9575C26.8075 8.53506 21.955 3.08006 15.4825 3.03006C8.27753 2.93006 3.12253 8.26506 2.80503 16.1901L2.82253 16.2251Z" fill="black"/>
</svg>
