<svg width="68" height="68" viewBox="0 0 68 68" fill="none" xmlns="http://www.w3.org/2000/svg">
<g filter="url(#filter0_d_13_662)">
<path d="M34 0C17.425 0 4 13.7646 4 30.7588C4 44.3696 12.5875 55.8657 24.5125 59.9412C26.0125 60.2104 26.575 59.2876 26.575 58.4802C26.575 57.7497 26.5375 55.3274 26.5375 52.7514C19 54.174 17.05 50.8674 16.45 49.1372C16.1125 48.2529 14.65 45.523 13.375 44.7925C12.325 44.2158 10.825 42.7932 13.3375 42.7547C15.7 42.7163 17.3875 44.9848 17.95 45.9075C20.65 50.5598 24.9625 49.2526 26.6875 48.4451C26.95 46.4458 27.7375 45.1001 28.6 44.3311C21.925 43.5622 14.95 40.9092 14.95 29.144C14.95 25.799 16.1125 23.0307 18.025 20.8775C17.725 20.1086 16.675 16.9558 18.325 12.7265C18.325 12.7265 20.8375 11.919 26.575 15.8792C28.975 15.1872 31.525 14.8411 34.075 14.8411C36.625 14.8411 39.175 15.1872 41.575 15.8792C47.3125 11.8806 49.825 12.7265 49.825 12.7265C51.475 16.9558 50.425 20.1086 50.125 20.8775C52.0375 23.0307 53.2 25.7605 53.2 29.144C53.2 40.9477 46.1875 43.5622 39.5125 44.3311C40.6 45.2924 41.5375 47.1379 41.5375 50.0215C41.5375 54.1355 41.5 57.4421 41.5 58.4802C41.5 59.2876 42.0625 60.2488 43.5625 59.9412C49.519 57.8814 54.695 53.9574 58.3615 48.7221C62.028 43.4868 64.0001 37.204 64 30.7588C64 13.7646 50.575 0 34 0Z" fill="#9013FE"/>
</g>
<defs>
<filter id="filter0_d_13_662" x="0" y="0" width="68" height="68" filterUnits="userSpaceOnUse" color-interpolation-filters="sRGB">
<feFlood flood-opacity="0" result="BackgroundImageFix"/>
<feColorMatrix in="SourceAlpha" type="matrix" values="0 0 0 0 0 0 0 0 0 0 0 0 0 0 0 0 0 0 127 0" result="hardAlpha"/>
<feOffset dy="4"/>
<feGaussianBlur stdDeviation="2"/>
<feComposite in2="hardAlpha" operator="out"/>
<feColorMatrix type="matrix" values="0 0 0 0 0 0 0 0 0 0 0 0 0 0 0 0 0 0 0.25 0"/>
<feBlend mode="normal" in2="BackgroundImageFix" result="effect1_dropShadow_13_662"/>
<feBlend mode="normal" in="SourceGraphic" in2="effect1_dropShadow_13_662" result="shape"/>
</filter>
</defs>
</svg>
