<svg width="28" height="60" viewBox="0 0 28 60" fill="none" xmlns="http://www.w3.org/2000/svg">
<path d="M26.9825 23.8875C23.8225 9.9375 16.3525 5.3525 15.55 3.6C14.85 2.615 14.225 1.215 13.7125 0C13.6225 1.2375 13.575 1.7125 12.405 2.96C10.5975 4.375 1.30997 12.165 0.554972 28.01C-0.150028 42.79 11.23 51.5975 12.775 52.72L12.95 52.845C13.2717 55.2244 13.5468 57.6098 13.775 60H14.9775C15.2625 57.42 15.6875 54.86 16.2525 52.325C17.295 51.585 17.7625 51.1675 18.3775 50.5925C21.2899 47.8982 23.6044 44.6228 25.1715 40.9778C26.7386 37.3329 27.5233 33.3997 27.475 29.4325C27.5 27.3975 27.2175 25.2775 26.9825 23.8875ZM13.6425 44.375C13.6425 44.375 13.6425 23.6475 14.33 23.65C14.8625 23.65 15.555 50.3875 15.555 50.3875C14.6025 50.275 13.6425 45.9875 13.6425 44.375Z" fill="#47A248"/>
</svg>
