<svg width="54" height="60" viewBox="0 0 54 60" fill="none" xmlns="http://www.w3.org/2000/svg">
<path d="M26.995 60C26.1925 60 25.3925 59.79 24.69 59.3825L17.35 55.04C16.255 54.4275 16.79 54.21 17.15 54.0825C18.6125 53.575 18.9075 53.4575 20.47 52.5725C20.6325 52.48 20.8475 52.515 21.015 52.615L26.655 55.9625C26.86 56.075 27.1475 56.075 27.335 55.9625L49.3225 43.2725C49.5275 43.155 49.6575 42.92 49.6575 42.6775V17.3025C49.6575 17.055 49.525 16.8225 49.315 16.6975L27.3375 4.01751C27.135 3.90001 26.865 3.90001 26.66 4.01751L4.68752 16.7C4.47502 16.8225 4.34002 17.0625 4.34002 17.3025V42.6775C4.34002 42.92 4.47502 43.15 4.68752 43.265L10.71 46.745C13.9775 48.38 15.98 46.455 15.98 44.52V19.4675C15.98 19.1125 16.265 18.835 16.62 18.835H19.4075C19.755 18.835 20.045 19.115 20.045 19.4675V44.52C20.045 48.8825 17.67 51.3825 13.535 51.3825C12.265 51.3825 11.2625 51.3825 8.47002 50.005L2.70002 46.6875C1.27502 45.865 0.39502 44.325 0.39502 42.6775V17.3025C0.39502 15.655 1.27752 14.115 2.70002 13.295L24.6875 0.590015C26.08 -0.197485 27.9275 -0.197485 29.3075 0.590015L51.2925 13.295C52.7175 14.1175 53.6025 15.655 53.6025 17.3025V42.6775C53.6025 44.325 52.7175 45.86 51.2925 46.6875L29.3075 59.3825C28.6075 59.79 27.81 60 26.995 60ZM44.7475 34.9825C44.7475 30.2325 41.5375 28.9675 34.78 28.075C27.9525 27.1725 27.2575 26.705 27.2575 25.1075C27.2575 23.7875 27.845 22.025 32.9025 22.025C37.42 22.025 39.085 22.9975 39.77 26.0425C39.83 26.33 40.0925 26.54 40.3875 26.54H43.24C43.4175 26.54 43.585 26.4625 43.705 26.3375C43.825 26.2025 43.89 26.03 43.8725 25.8475C43.43 20.6025 39.945 18.1575 32.9025 18.1575C26.6325 18.1575 22.8925 20.8025 22.8925 25.24C22.8925 30.0525 26.6125 31.3825 32.63 31.9775C39.83 32.6825 40.3875 33.735 40.3875 35.15C40.3875 37.6075 38.415 38.655 33.7825 38.655C27.965 38.655 26.685 37.195 26.255 34.3C26.205 33.99 25.94 33.7625 25.6225 33.7625H22.78C22.4275 33.7625 22.145 34.0425 22.145 34.395C22.145 38.1 24.16 42.515 33.7825 42.515C40.7525 42.5175 44.7475 39.775 44.7475 34.9825Z" fill="#5FA04E"/>
</svg>
