<svg width="60" height="32" viewBox="0 0 60 32" fill="none" xmlns="http://www.w3.org/2000/svg">
<path d="M17.525 11.5175H15.165L13.8775 18.1375H15.9725C17.3625 18.1375 18.3975 17.875 19.0775 17.3525C19.7575 16.8275 20.215 15.955 20.4525 14.73C20.6825 13.555 20.5775 12.725 20.1425 12.2425C19.705 11.76 18.835 11.5175 17.525 11.5175ZM30 0.219971C13.4325 0.219971 0 7.28497 0 16C0 24.715 13.4325 31.7825 30 31.7825C46.5675 31.7825 60 24.715 60 16C60 7.28497 46.5675 0.219971 30 0.219971ZM21.85 18.8475C21.1975 19.4725 20.4125 19.9425 19.5575 20.225C18.7175 20.495 17.645 20.635 16.345 20.635H13.3925L12.575 24.8375H9.13L12.205 9.02247H18.83C20.8225 9.02247 22.275 9.54497 23.19 10.5925C24.105 11.6375 24.38 13.0975 24.015 14.9725C23.8752 15.7144 23.6178 16.4292 23.2525 17.09C22.895 17.7275 22.4275 18.315 21.85 18.8475ZM31.91 20.635L33.2675 13.6375C33.425 12.8425 33.365 12.2975 33.0975 12.01C32.83 11.72 32.2575 11.575 31.38 11.575H28.65L26.89 20.6375H23.47L26.545 4.81997H29.9625L29.145 9.02497H32.19C34.1075 9.02497 35.4275 9.35997 36.155 10.0275C36.8825 10.695 37.1 11.7775 36.8125 13.275L35.3825 20.635H31.91ZM50.9025 14.9725C50.765 15.715 50.5074 16.4302 50.14 17.09C49.7825 17.7275 49.315 18.315 48.7375 18.8475C48.0846 19.4706 47.3017 19.941 46.445 20.225C45.605 20.495 44.5325 20.635 43.23 20.635H40.28L39.4625 24.84H36.0175L39.0925 9.02497H45.715C47.7075 9.02497 49.16 9.54747 50.075 10.595C50.99 11.6375 51.2675 13.0975 50.9025 14.9725ZM44.415 11.5175H42.0575L40.7675 18.1375H42.8625C44.255 18.1375 45.29 17.875 45.9675 17.3525C46.6475 16.8275 47.105 15.955 47.345 14.73C47.575 13.555 47.4675 12.725 47.0325 12.2425C46.5975 11.76 45.7225 11.5175 44.415 11.5175Z" fill="#777BB4"/>
</svg>
