<svg width="58" height="60" viewBox="0 0 58 60" fill="none" xmlns="http://www.w3.org/2000/svg">
<path d="M57.8985 36.807C57.8642 36.7023 57.8169 36.6022 57.7577 36.5093C57.4102 35.8512 56.5658 35.6548 55.2393 35.929C51.106 36.7818 49.5055 36.257 48.9252 35.8813C52.2802 30.7608 55.0377 24.5763 56.528 18.807C57.2065 16.1803 58.5235 9.99775 56.8335 6.978C56.7255 6.77131 56.5993 6.5747 56.4562 6.3905C53.2327 2.2715 48.5017 0.0620035 42.7747 0.00125351C39.038 -0.0382465 35.8485 0.866503 34.9845 1.19975C34.5565 1.11988 34.1265 1.05186 33.6947 0.995753C32.6125 0.799779 31.516 0.69292 30.4162 0.676253C27.4607 0.630253 24.9067 1.33675 22.7917 2.77775C20.6485 1.975 10.8197 -1.33475 4.737 2.97475C1.33975 5.3815 -0.228504 9.68325 0.075496 15.7608C0.177746 17.8058 1.34275 24.0958 3.18125 30.1198C4.33075 33.886 5.528 36.8745 6.76475 39.0748C8.14725 41.5603 9.5795 43.058 11.0505 43.5485C12.169 43.9213 13.8822 43.9088 15.6957 41.7288C17.6987 39.32 19.6715 37.1643 20.5572 36.2115C21.645 36.8003 22.8232 37.1178 24.0322 37.1545C24.0325 37.1579 24.0328 37.1614 24.0332 37.1648C23.8227 37.4156 23.6167 37.6701 23.4152 37.9283C22.568 39.0038 22.3917 39.2275 19.6647 39.789C18.8892 39.949 16.8287 40.3738 16.7987 41.8178C16.7925 42.1238 16.881 42.395 17.0285 42.6348C17.5957 43.6925 19.3325 44.159 19.566 44.2175C22.9022 45.0513 25.827 44.4475 27.9945 42.5208C27.952 48.0983 28.1882 53.5643 28.858 55.2393C29.411 56.6215 30.7625 60.0005 35.031 60C35.6572 60 36.3467 59.9273 37.105 59.7648C41.5597 58.8095 43.4942 56.8408 44.2425 52.5C44.6182 50.3233 45.2465 45.3118 45.5895 42.247C45.6317 42.0713 45.6787 41.9453 45.732 41.9065C45.7337 41.9053 45.9062 41.7888 46.8 41.9833C46.8365 41.9912 46.8735 41.9968 46.9107 42.0003L47.5455 42.056L47.5827 42.0585C49.6997 42.1545 52.3612 41.702 53.9107 40.9815C55.5202 40.2345 58.425 38.4008 57.8985 36.807ZM4.9275 29.6913C3.06875 23.6018 1.98275 17.4785 1.89675 15.7615C1.62525 10.333 2.9395 6.55425 5.8025 4.52975C10.3942 1.28325 17.902 3.17775 21.0725 4.20475C21.0645 4.21275 21.056 4.22 21.048 4.22825C15.9885 9.33825 16.1085 18.0683 16.121 18.602C16.1205 18.8078 16.1375 19.0993 16.1615 19.5003C16.2485 20.9685 16.4105 23.7013 15.9777 26.7963C15.5755 29.6723 16.462 32.4873 18.4097 34.5193C18.6112 34.7295 18.8217 34.927 19.0392 35.1128C18.1722 36.0413 16.2882 38.0943 14.283 40.5068C12.8637 42.213 11.8837 41.886 11.5615 41.7785C10.5817 41.4518 9.529 40.3108 8.46625 38.4728C7.26725 36.3753 6.0575 33.3935 4.9275 29.6913ZM19.9455 42.409C19.5177 42.302 19.1277 42.126 18.865 41.966C19.0872 41.8675 19.4585 41.7405 20.0732 41.6138C23.2815 40.9535 23.777 40.4873 24.859 39.1133C25.107 38.7983 25.388 38.4415 25.7772 38.0068C25.861 37.9129 25.9238 37.8023 25.9615 37.6823C26.3885 37.304 26.6425 37.4075 27.0537 37.578C27.4437 37.7395 27.8232 38.228 27.9775 38.766C28.0502 39.02 28.1322 39.5023 27.8645 39.877C25.6037 43.0415 22.3105 43.0005 19.9455 42.409ZM25.1805 32.439L25.0492 32.7915C24.7167 33.683 24.4075 34.5118 24.2157 35.299C22.5472 35.2938 20.9237 34.581 19.6895 33.293C18.1197 31.6553 17.4067 29.377 17.7332 27.042C18.1902 23.7723 18.0215 20.925 17.9307 19.3955C17.9182 19.1813 17.907 18.9938 17.9002 18.8458C18.6395 18.1905 22.065 16.3553 24.5075 16.9148C25.6222 17.1703 26.3015 17.929 26.5837 19.2348C28.0452 25.9943 26.7772 28.8115 25.7582 31.0755C25.5482 31.542 25.35 31.9828 25.1805 32.439ZM43.5897 43.8703C43.5475 44.3123 43.5002 44.8103 43.4352 45.36L43.0702 46.4558C43.0413 46.5426 43.0259 46.6334 43.0247 46.725C43.01 47.9118 42.8897 48.3473 42.7372 48.8983C42.5787 49.4713 42.399 50.121 42.2887 51.542C42.0137 55.0778 40.0932 57.1088 36.2457 57.9333C32.457 58.746 31.785 56.6913 31.1927 54.879C31.1321 54.689 31.068 54.5002 31.0005 54.3125C30.462 52.848 30.5227 50.7828 30.607 47.9248C30.6482 46.5218 30.5447 43.1715 29.7815 41.3093C29.7925 40.5763 29.808 39.832 29.829 39.0798C29.8315 38.9845 29.8186 38.8894 29.7907 38.7983C29.7666 38.6225 29.7299 38.4488 29.681 38.2783C29.3745 37.2075 28.6277 36.3118 27.7317 35.9405C27.3757 35.793 26.7222 35.5225 25.9372 35.7233C26.1047 35.0333 26.395 34.2545 26.7097 33.411L26.842 33.056C26.9907 32.656 27.177 32.2418 27.3745 31.803C28.4407 29.434 29.901 26.1898 28.316 18.86C27.7225 16.1148 25.74 14.7743 22.735 15.0855C20.9332 15.272 19.2852 15.999 18.463 16.4158C18.2981 16.4993 18.135 16.5861 17.9735 16.676C18.203 13.91 19.07 8.74075 22.3127 5.47025C22.5536 5.22754 22.8067 4.99724 23.071 4.78025C23.2022 4.75466 23.3259 4.69961 23.4327 4.61925C25.3137 3.19275 27.669 2.49275 30.4377 2.538C31.4605 2.55475 32.442 2.62275 33.3732 2.7405C38.2207 3.6265 41.483 6.3575 43.463 8.69725C45.4987 11.103 46.601 13.526 47.041 14.833C43.733 14.4965 41.4825 15.15 40.3417 16.7805C37.8602 20.3278 41.6992 27.2128 43.5445 30.5215C43.8827 31.128 44.175 31.652 44.2667 31.8748C44.8675 33.331 45.6455 34.303 46.2135 35.0128C46.3875 35.2303 46.5565 35.4413 46.6847 35.6253C45.6827 35.914 43.8827 36.5815 44.0467 39.9178C44.016 40.3085 43.941 41.035 43.8382 41.9548C43.723 42.474 43.6627 43.1055 43.5897 43.8703ZM45.816 39.8175C45.7147 37.7385 46.4887 37.5213 47.3077 37.2913C47.4211 37.2602 47.5336 37.2264 47.6452 37.1898C47.7509 37.2834 47.863 37.3694 47.9807 37.4473C49.4065 38.3885 51.9365 38.5005 55.4977 37.7833C54.9937 38.2255 54.2005 38.7818 53.1145 39.286C52.09 39.7618 50.3752 40.1185 48.7462 40.195C46.947 40.279 46.0315 39.9933 45.816 39.8175ZM47.2397 16.6395C47.225 17.5165 47.1042 18.3125 46.9762 19.1438C46.8387 20.0378 46.6962 20.9623 46.6602 22.0843C46.6247 23.1763 46.7612 24.3115 46.8932 25.4095C47.1597 27.627 47.4332 29.9103 46.3745 32.163C46.1988 31.8515 46.0421 31.5296 45.9055 31.199C45.7737 30.88 45.4882 30.3675 45.0927 29.6585C43.5537 26.8983 39.9492 20.4345 41.7945 17.797C42.7432 16.4403 45.1465 16.3818 47.2397 16.6395ZM47.8107 34.1738C47.7402 34.0839 47.6691 33.9944 47.5975 33.9053L47.5087 33.7943C49.3242 30.7955 48.9692 27.8288 48.6532 25.198C48.5235 24.1185 48.401 23.099 48.432 22.1415C48.4642 21.1263 48.5985 20.2558 48.7282 19.4138C48.888 18.3763 49.0502 17.303 49.0055 16.0375C49.039 15.9048 49.0525 15.748 49.035 15.562C48.9207 14.3483 47.5352 10.717 44.7115 7.4295C43.1925 5.66125 40.9875 3.6865 37.9892 2.33075C39.302 2.06425 41.0712 1.822 43.0502 1.866C48.179 1.98 52.2367 3.89975 55.1107 7.572C55.1718 7.65172 55.2275 7.73541 55.2775 7.8225C57.0852 11.2115 54.587 23.5103 47.8107 34.1738ZM25.7692 18.8833C25.7067 19.3318 24.997 19.9395 24.2165 19.9395C24.1488 19.9395 24.0813 19.9349 24.0142 19.9255C23.546 19.8605 23.073 19.5655 22.7495 19.1365C22.635 18.9853 22.4487 18.6915 22.4857 18.4255C22.4995 18.3253 22.551 18.1793 22.717 18.0535C23.0125 17.83 23.5965 17.747 24.241 17.8368C25.0317 17.947 25.8475 18.3213 25.7692 18.8833ZM45.5955 17.8548C45.6232 18.0528 45.473 18.3573 45.2127 18.6303C45.042 18.8095 44.6827 19.1205 44.193 19.1883C44.1309 19.1969 44.0682 19.2012 44.0055 19.2013C43.2717 19.2013 42.652 18.6153 42.6037 18.272C42.5437 17.8308 43.264 17.4955 44.0065 17.392C44.749 17.2885 45.5342 17.414 45.5955 17.8548Z" fill="#4169E1"/>
</svg>
