<svg width="60" height="54" viewBox="0 0 60 54" fill="none" xmlns="http://www.w3.org/2000/svg">
<path d="M35.575 27.01C35.575 28.4922 34.9864 29.9136 33.9386 30.9619C32.8908 32.0101 31.4696 32.5994 29.9875 32.6C28.5049 32.6 27.0831 32.0111 26.0348 30.9628C24.9864 29.9144 24.3975 28.4926 24.3975 27.01C24.3975 25.5279 24.9861 24.1064 26.0339 23.0582C27.0817 22.0099 28.5029 21.4207 29.985 21.42C31.4676 21.42 32.8894 22.009 33.9377 23.0573C34.9861 24.1056 35.575 25.5275 35.575 27.01ZM42.195 0.285034C38.83 0.285034 34.4275 2.68503 29.975 6.84003C25.525 2.70753 21.12 0.335034 17.7575 0.335034C16.7325 0.335034 15.8 0.567534 14.9925 1.03003C11.555 3.01253 10.785 9.19003 12.56 16.9425C4.95 19.2925 0 23.05 0 27.01C0 30.985 4.975 34.7525 12.6075 37.085C10.8475 44.8675 11.6325 51.055 15.0775 53.035C15.8775 53.5025 16.8025 53.7225 17.8325 53.7225C21.195 53.7225 25.6 51.3225 30.0525 47.1625C34.5025 51.2975 38.9075 53.67 42.27 53.67C43.295 53.67 44.2275 53.445 45.035 52.9825C48.47 51.0025 49.2425 44.825 47.4675 37.07C55.05 34.74 60 30.975 60 27.01C60 23.035 55.025 19.2675 47.3925 16.93C49.1525 9.15503 48.3675 2.96253 44.9225 0.980034C44.1275 0.520034 43.205 0.287534 42.195 0.285034ZM42.1825 3.01003V3.02503C42.745 3.02503 43.1975 3.13503 43.5775 3.34253C45.2425 4.29753 45.965 7.93003 45.4025 12.6025C45.2675 13.7525 45.0475 14.965 44.7775 16.2025C42.3775 15.6125 39.7625 15.16 37.01 14.8675C35.36 12.605 33.6475 10.55 31.9225 8.75003C35.9025 5.05003 39.64 3.02003 42.185 3.01253L42.1825 3.01003ZM17.7575 3.06003C20.2875 3.06003 24.0425 5.08003 28.0325 8.76003C26.3175 10.56 24.6075 12.6025 22.9825 14.865C20.215 15.1575 17.5975 15.61 15.2 16.21C14.92 14.985 14.7125 13.8 14.565 12.66C13.99 7.99003 14.7 4.36003 16.35 3.39253C16.825 3.16753 17.35 3.07253 17.7575 3.06003ZM29.9625 10.685C31.1 11.855 32.2375 13.165 33.3625 14.595C32.2625 14.545 31.1375 14.51 30 14.51C28.85 14.51 27.7125 14.535 26.6 14.595C27.7 13.165 28.8375 11.8575 29.9625 10.685ZM30 17.25C31.85 17.25 33.6925 17.335 35.505 17.4825C36.52 18.9375 37.51 20.49 38.4625 22.1325C39.3925 23.7325 40.2375 25.3575 41.0075 26.9975C40.2375 28.635 39.3925 30.2725 38.475 31.8725C37.525 33.5225 36.5425 35.0925 35.525 36.5475C33.705 36.705 31.86 36.7925 30 36.7925C28.15 36.7925 26.3075 36.705 24.495 36.56C23.48 35.105 22.49 33.55 21.5375 31.91C20.6075 30.31 19.7625 28.685 18.9925 27.045C19.75 25.4025 20.6075 23.7625 21.525 22.16C22.475 20.51 23.4575 18.945 24.475 17.49C26.295 17.33 28.14 17.245 30 17.245V17.25ZM20.9125 17.885C20.3125 18.8275 19.7125 19.7925 19.1525 20.785C18.59 21.76 18.065 22.74 17.565 23.72C16.9025 22.08 16.34 20.445 15.875 18.8525C17.475 18.4775 19.1625 18.1425 20.9125 17.885ZM39.0625 17.885C40.8 18.1425 42.475 18.46 44.0775 18.8525C43.6275 20.4325 43.065 22.0575 42.4275 23.685C41.9275 22.71 41.4025 21.7275 40.8275 20.75C40.265 19.77 39.665 18.815 39.065 17.885H39.0625ZM46.72 19.5725C47.93 19.9475 49.08 20.365 50.1575 20.8175C54.4875 22.6675 57.2875 25.0875 57.2875 27.0075C57.275 28.9275 54.475 31.3575 50.145 33.195C49.095 33.645 47.945 34.05 46.7575 34.4275C46.0575 32.0325 45.1425 29.5375 44.0075 26.9775C45.1325 24.435 46.0325 21.9525 46.72 19.5675V19.5725ZM13.2325 19.5825C13.9275 21.9825 14.845 24.475 15.9825 27.0325C14.8575 29.575 13.9525 32.0575 13.2675 34.4425C12.0575 34.0675 10.9075 33.6475 9.8425 33.1925C5.5125 31.35 2.7125 28.9275 2.7125 27.0075C2.7125 25.0875 5.5125 22.6525 9.8425 20.8175C10.8925 20.3675 12.0425 19.9625 13.2325 19.5825ZM42.4275 30.2825C43.09 31.925 43.6525 33.5625 44.1175 35.1525C42.5175 35.545 40.8275 35.8775 39.0775 36.1275C39.6775 35.19 40.2775 34.2225 40.84 33.2325C41.4025 32.2575 41.925 31.2625 42.4275 30.2825ZM17.565 30.3325C18.065 31.3125 18.59 32.29 19.165 33.27C19.74 34.245 20.3275 35.2 20.9275 36.1275C19.19 35.8725 17.515 35.5525 15.9125 35.1625C16.3625 33.5875 16.9275 31.9575 17.5625 30.33L17.565 30.3325ZM44.8 37.8C45.08 39.0325 45.3 40.22 45.435 41.3575C46.01 46.0275 45.3 49.6575 43.65 50.6275C43.2825 50.8525 42.805 50.9475 42.2425 50.9475C39.7125 50.9475 35.9575 48.93 31.9675 45.2475C33.6825 43.4475 35.3925 41.4075 37.0175 39.1475C39.785 38.8525 42.4025 38.4 44.8 37.8ZM15.225 37.825C17.625 38.41 20.24 38.8625 22.9925 39.155C24.6425 41.4175 26.355 43.4725 28.08 45.27C24.0925 48.9775 20.35 51.0075 17.805 51.0075C17.255 50.995 16.79 50.8825 16.4225 50.6775C14.7575 49.7275 14.035 46.0925 14.5975 41.42C14.7325 40.27 14.955 39.06 15.225 37.825ZM26.625 39.425C27.725 39.475 28.85 39.51 29.9875 39.51C31.1375 39.51 32.275 39.485 33.3875 39.425C32.2875 40.855 31.15 42.1625 30.025 43.3375C28.8875 42.1625 27.75 40.855 26.625 39.425Z" fill="#61DAFB"/>
</svg>
