<svg width="60" height="36" viewBox="0 0 60 36" fill="none" xmlns="http://www.w3.org/2000/svg">
<path d="M30.0025 0C22.0025 0 17.0025 4 15.0025 12C18.0025 8 21.5025 6.5 25.5025 7.5C27.785 8.07 29.415 9.725 31.2225 11.56C34.165 14.545 37.5675 18 45.0025 18C53.0025 18 58.0025 14 60.0025 6C57.0025 10 53.5025 11.5 49.5025 10.5C47.22 9.93 45.59 8.275 43.7825 6.44C40.8425 3.455 37.44 0 30.0025 0ZM15.0025 18C7.0025 18 2.0025 22 0.00250244 30C3.0025 26 6.5025 24.5 10.5025 25.5C12.785 26.07 14.415 27.725 16.2225 29.56C19.165 32.545 22.5675 36 30.0025 36C38.0025 36 43.0025 32 45.0025 24C42.0025 28 38.5025 29.5 34.5025 28.5C32.22 27.93 30.59 26.275 28.7825 24.44C25.8425 21.455 22.44 18 15.0025 18Z" fill="#06B6D4"/>
</svg>
